<svg id="Capa_1" enable-background="new 0 0 512 512" height="512" viewBox="0 0 512 512" width="512" xmlns="http://www.w3.org/2000/svg" xmlns:xlink="http://www.w3.org/1999/xlink"><linearGradient id="SVGID_1_" gradientUnits="userSpaceOnUse" x1="437" x2="437" y1="452" y2="2"><stop offset="0" stop-color="#ffc2cc"/><stop offset="1" stop-color="#fff2f4"/></linearGradient><linearGradient id="SVGID_2_" gradientUnits="userSpaceOnUse" x1="196" x2="196" y1="512" y2="0"><stop offset="0" stop-color="#fd3a84"/><stop offset="1" stop-color="#ffa68d"/></linearGradient><g><g><g><path d="m440.369 93.802c-27.012-23.394-48.369-41.88-48.369-76.802 0-8.291-6.709-15-15-15s-15 6.709-15 15v420c0 8.291 6.709 15 15 15s15-6.709 15-15v-253.279c29.042 5.493 90 29.319 90 133.279 0 8.291 6.709 15 15 15s15-6.709 15-15v-90c0-71.162-39.727-105.557-71.631-133.198z" fill="url(#SVGID_1_)"/></g></g><g><g><path d="m15 60h300c8.291 0 15-6.709 15-15v-30c0-8.291-6.709-15-15-15h-300c-8.291 0-15 6.709-15 15v30c0 8.291 6.709 15 15 15zm0 120h300c8.291 0 15-6.709 15-15v-30c0-8.291-6.709-15-15-15h-300c-8.291 0-15 6.709-15 15v30c0 8.291 6.709 15 15 15zm315 105v-30c0-8.291-6.709-15-15-15h-300c-8.291 0-15 6.709-15 15v30c0 8.291 6.709 15 15 15h300c8.291 0 15-6.709 15-15zm-43 77c-58.887 0-105 32.944-105 75s46.113 75 105 75 105-32.944 105-75-46.113-75-105-75z" fill="url(#SVGID_2_)"/></g></g></g></svg>